<svg width="175" height="47" viewBox="0 0 175 47" fill="none" xmlns="http://www.w3.org/2000/svg">
<path d="M89.26 11.85L81.97 33H74.44L67.12 11.85H73.42L78.22 27.12L82.99 11.85H89.26ZM92.8621 14.61C91.8221 14.61 90.9821 14.33 90.3421 13.77C89.7221 13.19 89.4121 12.47 89.4121 11.61C89.4121 10.73 89.7221 10 90.3421 9.42C90.9821 8.84 91.8221 8.55 92.8621 8.55C93.8821 8.55 94.7021 8.84 95.3221 9.42C95.9621 10 96.2821 10.73 96.2821 11.61C96.2821 12.47 95.9621 13.19 95.3221 13.77C94.7021 14.33 93.8821 14.61 92.8621 14.61ZM95.7721 16.17V33H89.8921V16.17H95.7721ZM105.091 33.21C103.571 33.21 102.211 32.96 101.011 32.46C99.8306 31.94 98.8906 31.24 98.1906 30.36C97.5106 29.46 97.1306 28.45 97.0506 27.33H102.751C102.831 27.87 103.081 28.29 103.501 28.59C103.921 28.89 104.441 29.04 105.061 29.04C105.541 29.04 105.921 28.94 106.201 28.74C106.481 28.54 106.621 28.28 106.621 27.96C106.621 27.54 106.391 27.23 105.931 27.03C105.471 26.83 104.711 26.61 103.651 26.37C102.451 26.13 101.451 25.86 100.651 25.56C99.8506 25.26 99.1506 24.77 98.5506 24.09C97.9706 23.41 97.6806 22.49 97.6806 21.33C97.6806 20.33 97.9506 19.43 98.4906 18.63C99.0306 17.81 99.8206 17.16 100.861 16.68C101.921 16.2 103.191 15.96 104.671 15.96C106.871 15.96 108.601 16.5 109.861 17.58C111.121 18.66 111.851 20.08 112.051 21.84H106.741C106.641 21.3 106.401 20.89 106.021 20.61C105.661 20.31 105.171 20.16 104.551 20.16C104.071 20.16 103.701 20.25 103.441 20.43C103.201 20.61 103.081 20.86 103.081 21.18C103.081 21.58 103.311 21.89 103.771 22.11C104.231 22.31 104.971 22.52 105.991 22.74C107.211 23 108.221 23.29 109.021 23.61C109.841 23.93 110.551 24.45 111.151 25.17C111.771 25.87 112.081 26.83 112.081 28.05C112.081 29.03 111.791 29.91 111.211 30.69C110.651 31.47 109.841 32.09 108.781 32.55C107.741 32.99 106.511 33.21 105.091 33.21ZM130.991 16.17V33H125.081V30.6C124.581 31.36 123.891 31.98 123.011 32.46C122.131 32.92 121.121 33.15 119.981 33.15C118.021 33.15 116.471 32.51 115.331 31.23C114.211 29.93 113.651 28.17 113.651 25.95V16.17H119.501V25.2C119.501 26.16 119.751 26.92 120.251 27.48C120.771 28.02 121.451 28.29 122.291 28.29C123.151 28.29 123.831 28.02 124.331 27.48C124.831 26.92 125.081 26.16 125.081 25.2V16.17H130.991ZM139.018 19.14C139.678 18.18 140.478 17.42 141.418 16.86C142.358 16.3 143.368 16.02 144.448 16.02V22.29H142.798C141.518 22.29 140.568 22.54 139.948 23.04C139.328 23.54 139.018 24.41 139.018 25.65V33H133.138V16.17H139.018V19.14ZM144.396 24.57C144.396 22.83 144.706 21.31 145.326 20.01C145.966 18.71 146.826 17.71 147.906 17.01C149.006 16.31 150.226 15.96 151.566 15.96C152.726 15.96 153.726 16.19 154.566 16.65C155.406 17.11 156.056 17.73 156.516 18.51V16.17H162.396V33H156.516V30.66C156.056 31.44 155.396 32.06 154.536 32.52C153.696 32.98 152.706 33.21 151.566 33.21C150.226 33.21 149.006 32.86 147.906 32.16C146.826 31.46 145.966 30.46 145.326 29.16C144.706 27.84 144.396 26.31 144.396 24.57ZM156.516 24.57C156.516 23.49 156.216 22.64 155.616 22.02C155.036 21.4 154.316 21.09 153.456 21.09C152.576 21.09 151.846 21.4 151.266 22.02C150.686 22.62 150.396 23.47 150.396 24.57C150.396 25.65 150.686 26.51 151.266 27.15C151.846 27.77 152.576 28.08 153.456 28.08C154.316 28.08 155.036 27.77 155.616 27.15C156.216 26.53 156.516 25.67 156.516 24.57Z" fill="white"/>
<path d="M62 23.5C54.4 36.5 44.9 43 33.5 43C22.1 43 12.6 36.5 5 23.5C12.6 10.5 22.1 4 33.5 4C44.9 4 54.4 10.5 62 23.5Z" fill="white" stroke="white" stroke-linecap="round" stroke-linejoin="round"/>
<ellipse cx="33.8851" cy="23.5" rx="15.4023" ry="16.45" fill="black"/>
<path d="M43.8965 23.5L28.3017 32.5451V14.4548L43.8965 23.5Z" fill="white"/>
</svg>
